<svg width="64" height="64" fill="none" xmlns="http://www.w3.org/2000/svg"><path d="M19.2 14c-7.913 0-13.367 2.692-13.367 2.692a1.28 1.28 0 0 0-.713 1.148v3.84H3.84C1.734 21.68 0 23.414 0 25.52V58.8c0 2.106 1.734 3.84 3.84 3.84h25.317c.703.78 1.71 1.28 2.843 1.28s2.14-.5 2.843-1.28H60.16c2.106 0 3.84-1.734 3.84-3.84V25.52c0-2.106-1.734-3.84-3.84-3.84h-1.28v-3.84a1.28 1.28 0 0 0-.713-1.148S52.713 14 44.8 14c-6.76 0-11.497 1.875-12.8 2.448C30.697 15.875 25.96 14 19.2 14Zm0 2.56c6.563 0 10.618 1.76 11.52 2.17V55.7c-1.896-.758-5.551-2.02-11.52-2.02-5.969 0-9.624 1.262-11.52 2.02V23.175a1.28 1.28 0 0 0 0-.418V18.73c.902-.41 4.957-2.17 11.52-2.17Zm25.6 0c6.563 0 10.618 1.76 11.52 2.17v4.015c-.023.138-.023.28 0 .418V55.7c-1.896-.758-5.551-2.02-11.52-2.02-5.969 0-9.624 1.262-11.52 2.02V18.73c.902-.41 4.957-2.17 11.52-2.17Zm-1.28 5.12v2.67c-2.194.354-3.623 1.581-4.315 2.807-.82 1.452-.805 2.898-.805 2.898 0 1.82.914 3.27 2.072 4.212 1.159.944 2.532 1.525 3.81 2.09 1.279.566 2.46 1.118 3.22 1.748.761.63 1.138 1.2 1.138 2.295 0 0-.01.75-.46 1.508S47 43.44 44.8 43.44c-2.133 0-2.848-.878-3.335-1.852-.487-.975-.505-1.988-.505-1.988H38.4s-.018 1.547.775 3.133c.672 1.343 2.108 2.744 4.345 3.145v2.682h2.56v-2.665c2.178-.337 3.599-1.5 4.3-2.683.83-1.402.82-2.812.82-2.812 0-1.839-.904-3.308-2.063-4.267-1.159-.96-2.538-1.548-3.82-2.116-1.281-.567-2.468-1.114-3.23-1.735-.761-.62-1.127-1.166-1.127-2.227 0 0 .015-.825.475-1.64.46-.815 1.183-1.615 3.365-1.615 2.133 0 2.848.878 3.335 1.852.487.975.505 1.988.505 1.988h2.56s.018-1.547-.775-3.133c-.672-1.343-2.108-2.744-4.345-3.145V21.68h-2.56ZM3.84 24.24h1.28v33.28a1.28 1.28 0 0 0 1.853 1.145S11.806 56.24 19.2 56.24c7.393 0 12.227 2.425 12.227 2.425a1.288 1.288 0 0 0 .21.08l.03.01a1.287 1.287 0 0 0 .373.045h.008a1.298 1.298 0 0 0 .242-.032l.01-.003.013-.002c.09-.023.177-.056.26-.098 0 0 4.834-2.425 12.227-2.425 7.393 0 12.228 2.425 12.228 2.425a1.281 1.281 0 0 0 1.852-1.145V24.24h1.28c.723 0 1.28.557 1.28 1.28V58.8a1.26 1.26 0 0 1-1.28 1.28H3.84a1.26 1.26 0 0 1-1.28-1.28V25.52c0-.723.557-1.28 1.28-1.28Z" fill="#00486D"/></svg>