<svg width="130" height="31" fill="none" xmlns="http://www.w3.org/2000/svg"><path d="M.675 23v-.707l.642-.192c.407-.129.685-.332.835-.61.15-.3.225-.686.225-1.157v-15.9c0-.429-.054-.771-.16-1.028-.108-.279-.375-.493-.804-.643l-.738-.289v-.707H6.81l6.039 15.708 5.685-15.708h6.264v.707l-.514.16c-.407.13-.685.333-.835.611-.15.257-.225.6-.225 1.028a216.29 216.29 0 0 0-.032 3.726v8.769c0 1.242.01 2.474.032 3.694 0 .45.054.793.16 1.028.108.236.365.429.772.579l.642.224V23h-7.806v-.707l.707-.224c.407-.15.653-.343.739-.579.107-.257.16-.6.16-1.028v-6.97l.065-8.609L12.11 23H10.31L3.405 5.076l.128 7.324v7.966c0 .471.065.846.193 1.124.129.279.396.471.803.579l.643.224V23H.675Zm32.588.45c-1.456 0-2.773-.31-3.95-.932-1.179-.642-2.11-1.563-2.795-2.762-.664-1.22-.996-2.698-.996-4.433 0-1.735.375-3.212 1.124-4.433a7.493 7.493 0 0 1 2.987-2.795c1.264-.663 2.645-.995 4.144-.995 1.22 0 2.26.203 3.116.61.856.407 1.51.932 1.96 1.574.45.621.674 1.285.674 1.991 0 .6-.182 1.06-.546 1.382-.343.321-.793.482-1.35.482-.599 0-1.091-.214-1.477-.643-.364-.428-.578-.974-.642-1.638a9.225 9.225 0 0 1 0-1.092c.042-.3.042-.59 0-.867-.086-.365-.236-.61-.45-.74-.193-.128-.471-.192-.835-.192-1.35 0-2.388.546-3.116 1.638-.707 1.07-1.06 2.816-1.06 5.236 0 2.077.396 3.673 1.189 4.786.792 1.114 2.023 1.67 3.694 1.67.985 0 1.798-.181 2.44-.546.643-.385 1.232-.931 1.767-1.638l.514.386c-.535 1.285-1.36 2.27-2.473 2.955-1.092.664-2.398.996-3.919.996ZM40.61 23v-.675l.674-.192c.429-.129.707-.322.835-.578.129-.258.193-.6.193-1.028V4.273c0-.45-.075-.792-.225-1.028-.128-.257-.407-.45-.835-.578l-.642-.225v-.675h7.805v.675l-.674.225c-.407.107-.675.289-.803.546-.129.257-.193.61-.193 1.06v16.286c0 .428.075.77.225 1.028.15.235.428.417.835.546l.61.192V23H40.61ZM52.3 23v-.675l.386-.096c.407-.107.62-.31.642-.61.021-.3-.118-.643-.418-1.028l-6.135-8.512 7.838-7.967c.321-.32.492-.61.514-.867.043-.278-.15-.492-.578-.642l-.546-.161v-.675h5.075v.675l-.835.225c-.493.15-.89.332-1.189.546-.3.193-.642.492-1.028.9L50.31 9.925l7.355 10.504c.343.471.664.846.964 1.125.321.278.75.492 1.285.642l.45.128V23H52.3ZM65.1 5.333c-.707 0-1.307-.225-1.8-.675-.492-.45-.738-1.017-.738-1.702 0-.707.246-1.274.739-1.702.492-.45 1.092-.675 1.799-.675.706 0 1.306.225 1.799.675.492.428.738.995.738 1.702 0 .685-.246 1.253-.739 1.702-.492.45-1.092.675-1.798.675ZM61.406 23v-.61l.482-.129c.428-.128.717-.321.867-.578.15-.257.235-.6.257-1.028v-7.741c0-.578-.011-1.167-.032-1.767 0-.428-.086-.76-.257-.996-.15-.257-.44-.428-.868-.514l-.45-.096v-.578L67.028 7.1l.385.353-.096 4.561v8.673c0 .428.075.771.225 1.028.171.257.46.45.867.578l.353.097V23h-7.355Zm8.782 0v-.61l.514-.129c.707-.214 1.06-.739 1.06-1.574v-9.476c-.021-.45-.096-.792-.225-1.028-.128-.257-.407-.428-.835-.514l-.514-.128v-.578L75.392 7.1l.385.353.225 1.992a10.197 10.197 0 0 1 2.57-1.67c.964-.45 1.906-.675 2.827-.675 1.413 0 2.495.385 3.244 1.156.77.771 1.156 1.949 1.156 3.534v8.93c0 .835.386 1.36 1.157 1.573l.353.097V23h-7.388v-.61l.482-.129c.707-.235 1.06-.76 1.06-1.574v-9.54c0-.75-.16-1.296-.482-1.638-.321-.343-.856-.514-1.606-.514-1.05 0-2.141.46-3.276 1.381V20.72c0 .835.374 1.36 1.124 1.574l.321.097V23h-7.356Zm18.51 0v-.61l.481-.129c.707-.235 1.06-.77 1.06-1.606v-2.184c.022-.75.032-1.488.032-2.217V4.048c0-.45-.075-.782-.225-.996-.15-.235-.439-.407-.867-.514l-.482-.128V1.8L94.32.45l.417.29-.128 4.529v15.386c.021.428.107.782.257 1.06.171.257.46.44.867.546l.45.129V23h-7.485Zm16.969-15.9c1.349 0 2.505.278 3.469.835a5.628 5.628 0 0 1 2.216 2.313c.535.963.803 2.077.803 3.34 0 .279-.011.546-.032.803-.021.236-.064.46-.128.675h-9.669c.021 2.206.428 3.79 1.22 4.754.814.964 1.992 1.445 3.534 1.445 1.071 0 1.938-.17 2.602-.514.664-.364 1.274-.867 1.831-1.51l.514.483c-.643 1.177-1.521 2.098-2.634 2.762-1.093.642-2.399.964-3.919.964-1.521 0-2.859-.322-4.015-.964-1.157-.642-2.067-1.563-2.73-2.762-.643-1.221-.965-2.677-.965-4.369 0-1.756.375-3.244 1.125-4.465.77-1.22 1.756-2.152 2.955-2.795 1.221-.663 2.495-.995 3.823-.995Zm-.161.931c-.621 0-1.167.182-1.638.546-.45.343-.814.964-1.092 1.863-.257.878-.407 2.12-.45 3.726h5.75c.235-2.162.15-3.726-.257-4.69-.407-.963-1.178-1.445-2.313-1.445Zm10.955 22.71c-.857 0-1.531-.203-2.024-.61-.492-.407-.739-.942-.739-1.606 0-.6.204-1.081.611-1.445a2.21 2.21 0 0 1 1.413-.514c.536 0 .975.096 1.317.289.343.192.643.47.9.835l.192.257c.493.6.953.589 1.382-.032a7.76 7.76 0 0 0 .803-1.35c.278-.535.578-1.242.899-2.12l-6.103-14.583c-.15-.407-.321-.717-.514-.931-.193-.236-.482-.429-.867-.579l-.546-.192v-.578h7.934v.578l-.675.192c-.471.15-.728.386-.771.707-.021.3.054.696.225 1.189l3.276 8.544 3.148-8.609c.172-.47.236-.867.193-1.188-.043-.321-.31-.535-.803-.643l-.707-.192v-.578h4.787v.578l-.707.225c-.471.128-.814.32-1.028.578-.193.235-.375.589-.546 1.06l-5.14 13.812c-.856 2.356-1.734 4.09-2.634 5.204-.878 1.135-1.97 1.702-3.276 1.702Z" fill="#00486D"/></svg>