<svg width="445" height="490" viewBox="0 0 445 490" fill="none" xmlns="http://www.w3.org/2000/svg">
<g filter="url(#filter0_d_1_163)">
<path d="M24 2C24 0.89543 24.8954 0 26 0H419C420.105 0 421 0.895431 421 2V440C421 441.105 420.105 442 419 442H26C24.8954 442 24 441.105 24 440V2Z" fill="white"/>
<path d="M24.5 2C24.5 1.17157 25.1716 0.5 26 0.5H419C419.828 0.5 420.5 1.17157 420.5 2V440C420.5 440.828 419.828 441.5 419 441.5H26C25.1716 441.5 24.5 440.828 24.5 440V2Z" stroke="#E4ECF0"/>
</g>
<defs>
<filter id="filter0_d_1_163" x="0" y="0" width="445" height="490" filterUnits="userSpaceOnUse" color-interpolation-filters="sRGB">
<feFlood flood-opacity="0" result="BackgroundImageFix"/>
<feColorMatrix in="SourceAlpha" type="matrix" values="0 0 0 0 0 0 0 0 0 0 0 0 0 0 0 0 0 0 127 0" result="hardAlpha"/>
<feOffset dy="24"/>
<feGaussianBlur stdDeviation="12"/>
<feColorMatrix type="matrix" values="0 0 0 0 0 0 0 0 0 0.282353 0 0 0 0 0.427451 0 0 0 0.2 0"/>
<feBlend mode="normal" in2="BackgroundImageFix" result="effect1_dropShadow_1_163"/>
<feBlend mode="normal" in="SourceGraphic" in2="effect1_dropShadow_1_163" result="shape"/>
</filter>
</defs>
</svg>
