<svg width="64" height="64" fill="none" xmlns="http://www.w3.org/2000/svg"><g clip-path="url(#a)"><path d="M28.42 3C14.845 3 3.39 12.24 0 24.76h2.67a26.879 26.879 0 0 1 4.51-8.725c2.185 1.23 4.715 2.26 7.515 3.05a47.685 47.685 0 0 0-1.125 5.675h2.61c.26-1.76.615-3.44 1.035-5.04 3.085.68 6.42 1.085 9.925 1.16v3.88h2.56v-3.88c3.505-.075 6.84-.475 9.925-1.16.42 1.6.775 3.28 1.035 5.04h2.61c-.27-1.99-.655-3.88-1.125-5.675 2.8-.79 5.33-1.82 7.515-3.05 1.995 2.58 3.55 5.52 4.505 8.725h2.675C53.45 12.24 41.995 3 28.42 3Zm-1.28 2.715V18.32c-3.255-.075-6.35-.45-9.2-1.07 2.105-6.295 5.44-10.705 9.2-11.535Zm2.56 0c3.76.83 7.095 5.24 9.2 11.535-2.85.62-5.945.995-9.2 1.07V5.715Zm-8.79.935c-2.255 2.38-4.14 5.81-5.5 9.97-2.445-.69-4.655-1.565-6.545-2.58A26.932 26.932 0 0 1 20.91 6.65Zm15.02 0a26.932 26.932 0 0 1 12.045 7.39c-1.89 1.015-4.1 1.89-6.545 2.58-1.36-4.16-3.245-7.59-5.5-9.97ZM.26 27.32l3.25 10.24h2.98l2.71-7.655 2.71 7.655h2.915l3.31-10.24h-2.77l-2.09 7.155-2.39-7.155H7.62l-2.49 7.035-2.055-7.035H.26Zm19.22 0 3.255 10.24h2.985l2.7-7.655 2.715 7.655h2.915l3.31-10.24h-2.775L32.5 34.475l-2.39-7.155h-3.27l-2.49 7.035-2.05-7.035h-2.82Zm19.16 0 3.26 10.24h2.995l2.715-7.655 2.725 7.655h2.925l3.32-10.24H53.8l-2.1 7.155-2.395-7.155h-3.28l-2.5 7.035-2.065-7.035h-2.82Zm8.98 11.52c-7.04 0-12.8 5.76-12.8 12.8 0 7.04 5.76 12.8 12.8 12.8 7.04 0 12.8-5.76 12.8-12.8 0-7.04-5.76-12.8-12.8-12.8ZM0 40.12c3.39 12.52 14.845 21.76 28.42 21.76 2.435 0 4.795-.31 7.06-.865a15.66 15.66 0 0 1-1.16-1.755 14.978 14.978 0 0 1-1.005-2.075c-1.14 1.025-2.355 1.71-3.615 1.995V46.555c1.135.035 2.265.095 3.375.19.29-.855.64-1.69 1.07-2.47A53.968 53.968 0 0 0 29.7 44v-3.88h-2.56V44c-3.455.08-6.8.475-9.92 1.165-.425-1.6-.78-3.28-1.04-5.045h-2.61c.27 1.995.66 3.885 1.125 5.68-2.775.785-5.315 1.805-7.515 3.045a26.879 26.879 0 0 1-4.51-8.725H0Zm47.62 1.28c5.63 0 10.24 4.61 10.24 10.24s-4.61 10.24-10.24 10.24-10.24-4.61-10.24-10.24S41.99 41.4 47.62 41.4Zm0 3.84c-2.815 0-3.84 2.305-3.84 3.84h2.56c0-.64.255-1.28 1.28-1.28.64 0 1.28.255 1.28 1.28 0 .13-.385.64-.64.895-.77.895-1.92 2.305-1.92 4.225h2.56c0-1.025.64-1.79 1.28-2.56s1.28-1.535 1.28-2.56c0-2.815-2.305-3.84-3.84-3.84Zm-20.48 1.32v12.605c-3.76-.83-7.1-5.24-9.2-11.545 2.89-.62 5.99-.985 9.2-1.06Zm-11.73 1.69c1.36 4.165 3.245 7.6 5.5 9.975a26.888 26.888 0 0 1-12.05-7.39c1.935-1.04 4.145-1.905 6.55-2.585Zm30.93 7.23v2.56h2.56v-2.56h-2.56Z" fill="#00486D"/></g><defs><clipPath id="a"><path fill="#fff" d="M0 0h64v64H0z"/></clipPath></defs></svg>